<?xml version="1.0" encoding="utf-8" standalone="no"?>
<!DOCTYPE svg PUBLIC "-//W3C//DTD SVG 1.1//EN"
  "http://www.w3.org/Graphics/SVG/1.1/DTD/svg11.dtd">
<svg xmlns:xlink="http://www.w3.org/1999/xlink" width="460.8pt" height="345.6pt" viewBox="0 0 460.8 345.6" xmlns="http://www.w3.org/2000/svg" version="1.1">
 <metadata>
  <rdf:RDF xmlns:dc="http://purl.org/dc/elements/1.1/" xmlns:cc="http://creativecommons.org/ns#" xmlns:rdf="http://www.w3.org/1999/02/22-rdf-syntax-ns#">
   <cc:Work>
    <dc:type rdf:resource="http://purl.org/dc/dcmitype/StillImage"/>
    <dc:date>2024-09-15T21:33:57.944928</dc:date>
    <dc:format>image/svg+xml</dc:format>
    <dc:creator>
     <cc:Agent>
      <dc:title>Matplotlib v3.8.4, https://matplotlib.org/</dc:title>
     </cc:Agent>
    </dc:creator>
   </cc:Work>
  </rdf:RDF>
 </metadata>
 <defs>
  <style type="text/css">*{stroke-linejoin: round; stroke-linecap: butt}</style>
 </defs>
 <g id="figure_1">
  <g id="patch_1">
   <path d="M 0 345.6 
L 460.8 345.6 
L 460.8 0 
L 0 0 
z
" style="fill: #ffffff"/>
  </g>
  <g id="axes_1">
   <g id="patch_2">
    <path d="M 57.6 307.584 
L 414.72 307.584 
L 414.72 41.472 
L 57.6 41.472 
z
" style="fill: #ffffff"/>
   </g>
   <g id="PathCollection_1">
    <defs>
     <path id="mf90e70d497" d="M 0 3 
C 0.795609 3 1.55874 2.683901 2.12132 2.12132 
C 2.683901 1.55874 3 0.795609 3 0 
C 3 -0.795609 2.683901 -1.55874 2.12132 -2.12132 
C 1.55874 -2.683901 0.795609 -3 0 -3 
C -0.795609 -3 -1.55874 -2.683901 -2.12132 -2.12132 
C -2.683901 -1.55874 -3 -0.795609 -3 0 
C -3 0.795609 -2.683901 1.55874 -2.12132 2.12132 
C -1.55874 2.683901 -0.795609 3 0 3 
z
" style="stroke: #999999"/>
    </defs>
    <g clip-path="url(#p91daf9fc37)">
     <use xlink:href="#mf90e70d497" x="73.832727" y="155.41984" style="fill: #999999; stroke: #999999"/>
     <use xlink:href="#mf90e70d497" x="77.112066" y="122.309527" style="fill: #999999; stroke: #999999"/>
     <use xlink:href="#mf90e70d497" x="80.391405" y="124.558415" style="fill: #999999; stroke: #999999"/>
     <use xlink:href="#mf90e70d497" x="83.670744" y="160.627146" style="fill: #999999; stroke: #999999"/>
     <use xlink:href="#mf90e70d497" x="86.950083" y="98.562999" style="fill: #999999; stroke: #999999"/>
     <use xlink:href="#mf90e70d497" x="90.229421" y="127.050124" style="fill: #999999; stroke: #999999"/>
     <use xlink:href="#mf90e70d497" x="93.508761" y="86.687164" style="fill: #999999; stroke: #999999"/>
     <use xlink:href="#mf90e70d497" x="96.788098" y="111.019759" style="fill: #999999; stroke: #999999"/>
     <use xlink:href="#mf90e70d497" x="100.067438" y="131.810669" style="fill: #999999; stroke: #999999"/>
     <use xlink:href="#mf90e70d497" x="103.346778" y="166.282327" style="fill: #999999; stroke: #999999"/>
     <use xlink:href="#mf90e70d497" x="106.626115" y="96.200982" style="fill: #999999; stroke: #999999"/>
     <use xlink:href="#mf90e70d497" x="109.905455" y="62.634727" style="fill: #999999; stroke: #999999"/>
     <use xlink:href="#mf90e70d497" x="113.184795" y="61.727689" style="fill: #999999; stroke: #999999"/>
     <use xlink:href="#mf90e70d497" x="116.464132" y="100.09912" style="fill: #999999; stroke: #999999"/>
     <use xlink:href="#mf90e70d497" x="119.743469" y="92.540172" style="fill: #999999; stroke: #999999"/>
     <use xlink:href="#mf90e70d497" x="123.022811" y="123.009833" style="fill: #999999; stroke: #999999"/>
     <use xlink:href="#mf90e70d497" x="126.302149" y="112.590155" style="fill: #999999; stroke: #999999"/>
     <use xlink:href="#mf90e70d497" x="129.581486" y="84.30759" style="fill: #999999; stroke: #999999"/>
     <use xlink:href="#mf90e70d497" x="132.860828" y="70.116039" style="fill: #999999; stroke: #999999"/>
     <use xlink:href="#mf90e70d497" x="136.140166" y="53.568" style="fill: #999999; stroke: #999999"/>
     <use xlink:href="#mf90e70d497" x="139.419503" y="94.87078" style="fill: #999999; stroke: #999999"/>
     <use xlink:href="#mf90e70d497" x="142.698845" y="164.977973" style="fill: #999999; stroke: #999999"/>
     <use xlink:href="#mf90e70d497" x="145.978182" y="74.50599" style="fill: #999999; stroke: #999999"/>
     <use xlink:href="#mf90e70d497" x="149.25752" y="77.698175" style="fill: #999999; stroke: #999999"/>
     <use xlink:href="#mf90e70d497" x="152.536862" y="81.264037" style="fill: #999999; stroke: #999999"/>
     <use xlink:href="#mf90e70d497" x="155.816194" y="129.008474" style="fill: #999999; stroke: #999999"/>
     <use xlink:href="#mf90e70d497" x="159.095537" y="201.729938" style="fill: #999999; stroke: #999999"/>
     <use xlink:href="#mf90e70d497" x="162.374879" y="125.87647" style="fill: #999999; stroke: #999999"/>
     <use xlink:href="#mf90e70d497" x="165.654211" y="178.791846" style="fill: #999999; stroke: #999999"/>
     <use xlink:href="#mf90e70d497" x="168.933553" y="184.914666" style="fill: #999999; stroke: #999999"/>
     <use xlink:href="#mf90e70d497" x="172.212895" y="123.706927" style="fill: #999999; stroke: #999999"/>
     <use xlink:href="#mf90e70d497" x="175.492228" y="163.921407" style="fill: #999999; stroke: #999999"/>
     <use xlink:href="#mf90e70d497" x="178.77157" y="227.753902" style="fill: #999999; stroke: #999999"/>
     <use xlink:href="#mf90e70d497" x="182.050912" y="178.988724" style="fill: #999999; stroke: #999999"/>
     <use xlink:href="#mf90e70d497" x="185.330245" y="208.162897" style="fill: #999999; stroke: #999999"/>
     <use xlink:href="#mf90e70d497" x="188.609587" y="164.546876" style="fill: #999999; stroke: #999999"/>
     <use xlink:href="#mf90e70d497" x="191.888929" y="174.909641" style="fill: #999999; stroke: #999999"/>
     <use xlink:href="#mf90e70d497" x="195.168262" y="261.52958" style="fill: #999999; stroke: #999999"/>
     <use xlink:href="#mf90e70d497" x="198.447604" y="269.407328" style="fill: #999999; stroke: #999999"/>
     <use xlink:href="#mf90e70d497" x="201.726946" y="214.74359" style="fill: #999999; stroke: #999999"/>
     <use xlink:href="#mf90e70d497" x="205.006278" y="235.115445" style="fill: #999999; stroke: #999999"/>
     <use xlink:href="#mf90e70d497" x="208.285621" y="229.54239" style="fill: #999999; stroke: #999999"/>
     <use xlink:href="#mf90e70d497" x="211.564963" y="202.783299" style="fill: #999999; stroke: #999999"/>
     <use xlink:href="#mf90e70d497" x="214.844295" y="262.010771" style="fill: #999999; stroke: #999999"/>
     <use xlink:href="#mf90e70d497" x="218.123637" y="247.573026" style="fill: #999999; stroke: #999999"/>
     <use xlink:href="#mf90e70d497" x="221.40298" y="230.204151" style="fill: #999999; stroke: #999999"/>
     <use xlink:href="#mf90e70d497" x="224.682312" y="213.988975" style="fill: #999999; stroke: #999999"/>
     <use xlink:href="#mf90e70d497" x="227.961654" y="288.958212" style="fill: #999999; stroke: #999999"/>
     <use xlink:href="#mf90e70d497" x="231.240996" y="215.446544" style="fill: #999999; stroke: #999999"/>
     <use xlink:href="#mf90e70d497" x="234.520329" y="240.706298" style="fill: #999999; stroke: #999999"/>
     <use xlink:href="#mf90e70d497" x="237.799661" y="262.826082" style="fill: #999999; stroke: #999999"/>
     <use xlink:href="#mf90e70d497" x="241.079004" y="195.071562" style="fill: #999999; stroke: #999999"/>
     <use xlink:href="#mf90e70d497" x="244.358346" y="295.488" style="fill: #999999; stroke: #999999"/>
     <use xlink:href="#mf90e70d497" x="247.637688" y="211.513287" style="fill: #999999; stroke: #999999"/>
     <use xlink:href="#mf90e70d497" x="250.91703" y="207.790474" style="fill: #999999; stroke: #999999"/>
     <use xlink:href="#mf90e70d497" x="254.196372" y="243.304276" style="fill: #999999; stroke: #999999"/>
     <use xlink:href="#mf90e70d497" x="257.475695" y="241.136826" style="fill: #999999; stroke: #999999"/>
     <use xlink:href="#mf90e70d497" x="260.755037" y="173.442764" style="fill: #999999; stroke: #999999"/>
     <use xlink:href="#mf90e70d497" x="264.034379" y="247.766727" style="fill: #999999; stroke: #999999"/>
     <use xlink:href="#mf90e70d497" x="267.313722" y="197.549147" style="fill: #999999; stroke: #999999"/>
     <use xlink:href="#mf90e70d497" x="270.593064" y="158.605618" style="fill: #999999; stroke: #999999"/>
     <use xlink:href="#mf90e70d497" x="273.872406" y="200.309082" style="fill: #999999; stroke: #999999"/>
     <use xlink:href="#mf90e70d497" x="277.151729" y="223.969135" style="fill: #999999; stroke: #999999"/>
     <use xlink:href="#mf90e70d497" x="280.431071" y="178.15522" style="fill: #999999; stroke: #999999"/>
     <use xlink:href="#mf90e70d497" x="283.710413" y="199.463479" style="fill: #999999; stroke: #999999"/>
     <use xlink:href="#mf90e70d497" x="286.989755" y="126.202633" style="fill: #999999; stroke: #999999"/>
     <use xlink:href="#mf90e70d497" x="290.269097" y="161.840586" style="fill: #999999; stroke: #999999"/>
     <use xlink:href="#mf90e70d497" x="293.54842" y="118.915762" style="fill: #999999; stroke: #999999"/>
     <use xlink:href="#mf90e70d497" x="296.827762" y="136.532359" style="fill: #999999; stroke: #999999"/>
     <use xlink:href="#mf90e70d497" x="300.107105" y="78.028891" style="fill: #999999; stroke: #999999"/>
     <use xlink:href="#mf90e70d497" x="303.386447" y="94.59403" style="fill: #999999; stroke: #999999"/>
     <use xlink:href="#mf90e70d497" x="306.665789" y="95.922498" style="fill: #999999; stroke: #999999"/>
     <use xlink:href="#mf90e70d497" x="309.945131" y="171.919771" style="fill: #999999; stroke: #999999"/>
     <use xlink:href="#mf90e70d497" x="313.224454" y="97.426791" style="fill: #999999; stroke: #999999"/>
     <use xlink:href="#mf90e70d497" x="316.503796" y="111.824316" style="fill: #999999; stroke: #999999"/>
     <use xlink:href="#mf90e70d497" x="319.783138" y="96.008941" style="fill: #999999; stroke: #999999"/>
     <use xlink:href="#mf90e70d497" x="323.06248" y="162.031675" style="fill: #999999; stroke: #999999"/>
     <use xlink:href="#mf90e70d497" x="326.341822" y="66.796475" style="fill: #999999; stroke: #999999"/>
     <use xlink:href="#mf90e70d497" x="329.621165" y="106.160342" style="fill: #999999; stroke: #999999"/>
     <use xlink:href="#mf90e70d497" x="332.900487" y="115.832464" style="fill: #999999; stroke: #999999"/>
     <use xlink:href="#mf90e70d497" x="336.17983" y="103.425765" style="fill: #999999; stroke: #999999"/>
     <use xlink:href="#mf90e70d497" x="339.459172" y="116.500435" style="fill: #999999; stroke: #999999"/>
     <use xlink:href="#mf90e70d497" x="342.738514" y="100.181193" style="fill: #999999; stroke: #999999"/>
     <use xlink:href="#mf90e70d497" x="346.017856" y="61.426402" style="fill: #999999; stroke: #999999"/>
     <use xlink:href="#mf90e70d497" x="349.297198" y="126.995875" style="fill: #999999; stroke: #999999"/>
     <use xlink:href="#mf90e70d497" x="352.576521" y="103.126266" style="fill: #999999; stroke: #999999"/>
     <use xlink:href="#mf90e70d497" x="355.855863" y="180.193972" style="fill: #999999; stroke: #999999"/>
     <use xlink:href="#mf90e70d497" x="359.135205" y="111.583529" style="fill: #999999; stroke: #999999"/>
     <use xlink:href="#mf90e70d497" x="362.414548" y="162.271737" style="fill: #999999; stroke: #999999"/>
     <use xlink:href="#mf90e70d497" x="365.69389" y="181.001728" style="fill: #999999; stroke: #999999"/>
     <use xlink:href="#mf90e70d497" x="368.973232" y="113.111917" style="fill: #999999; stroke: #999999"/>
     <use xlink:href="#mf90e70d497" x="372.252555" y="167.172926" style="fill: #999999; stroke: #999999"/>
     <use xlink:href="#mf90e70d497" x="375.531897" y="197.348552" style="fill: #999999; stroke: #999999"/>
     <use xlink:href="#mf90e70d497" x="378.811239" y="232.323771" style="fill: #999999; stroke: #999999"/>
     <use xlink:href="#mf90e70d497" x="382.090581" y="149.725746" style="fill: #999999; stroke: #999999"/>
     <use xlink:href="#mf90e70d497" x="385.369923" y="157.331179" style="fill: #999999; stroke: #999999"/>
     <use xlink:href="#mf90e70d497" x="388.649266" y="205.438599" style="fill: #999999; stroke: #999999"/>
     <use xlink:href="#mf90e70d497" x="391.928588" y="176.833767" style="fill: #999999; stroke: #999999"/>
     <use xlink:href="#mf90e70d497" x="395.207931" y="245.103883" style="fill: #999999; stroke: #999999"/>
     <use xlink:href="#mf90e70d497" x="398.487273" y="173.357567" style="fill: #999999; stroke: #999999"/>
    </g>
   </g>
   <g id="matplotlib.axis_1">
    <g id="xtick_1">
     <g id="line2d_1">
      <defs>
       <path id="m0424d1dd08" d="M 0 0 
L 0 3.5 
" style="stroke: #000000; stroke-width: 0.8"/>
      </defs>
      <g>
       <use xlink:href="#m0424d1dd08" x="73.832727" y="307.584" style="stroke: #000000; stroke-width: 0.8"/>
      </g>
     </g>
     <g id="text_1">
      <!-- 0.0 -->
      <g transform="translate(65.881165 322.182437) scale(0.1 -0.1)">
       <defs>
        <path id="DejaVuSans-30" d="M 2034 4250 
Q 1547 4250 1301 3770 
Q 1056 3291 1056 2328 
Q 1056 1369 1301 889 
Q 1547 409 2034 409 
Q 2525 409 2770 889 
Q 3016 1369 3016 2328 
Q 3016 3291 2770 3770 
Q 2525 4250 2034 4250 
z
M 2034 4750 
Q 2819 4750 3233 4129 
Q 3647 3509 3647 2328 
Q 3647 1150 3233 529 
Q 2819 -91 2034 -91 
Q 1250 -91 836 529 
Q 422 1150 422 2328 
Q 422 3509 836 4129 
Q 1250 4750 2034 4750 
z
" transform="scale(0.015625)"/>
        <path id="DejaVuSans-2e" d="M 684 794 
L 1344 794 
L 1344 0 
L 684 0 
L 684 794 
z
" transform="scale(0.015625)"/>
       </defs>
       <use xlink:href="#DejaVuSans-30"/>
       <use xlink:href="#DejaVuSans-2e" x="63.623047"/>
       <use xlink:href="#DejaVuSans-30" x="95.410156"/>
      </g>
     </g>
    </g>
    <g id="xtick_2">
     <g id="line2d_2">
      <g>
       <use xlink:href="#m0424d1dd08" x="138.763636" y="307.584" style="stroke: #000000; stroke-width: 0.8"/>
      </g>
     </g>
     <g id="text_2">
      <!-- 0.2 -->
      <g transform="translate(130.812074 322.182437) scale(0.1 -0.1)">
       <defs>
        <path id="DejaVuSans-32" d="M 1228 531 
L 3431 531 
L 3431 0 
L 469 0 
L 469 531 
Q 828 903 1448 1529 
Q 2069 2156 2228 2338 
Q 2531 2678 2651 2914 
Q 2772 3150 2772 3378 
Q 2772 3750 2511 3984 
Q 2250 4219 1831 4219 
Q 1534 4219 1204 4116 
Q 875 4013 500 3803 
L 500 4441 
Q 881 4594 1212 4672 
Q 1544 4750 1819 4750 
Q 2544 4750 2975 4387 
Q 3406 4025 3406 3419 
Q 3406 3131 3298 2873 
Q 3191 2616 2906 2266 
Q 2828 2175 2409 1742 
Q 1991 1309 1228 531 
z
" transform="scale(0.015625)"/>
       </defs>
       <use xlink:href="#DejaVuSans-30"/>
       <use xlink:href="#DejaVuSans-2e" x="63.623047"/>
       <use xlink:href="#DejaVuSans-32" x="95.410156"/>
      </g>
     </g>
    </g>
    <g id="xtick_3">
     <g id="line2d_3">
      <g>
       <use xlink:href="#m0424d1dd08" x="203.694545" y="307.584" style="stroke: #000000; stroke-width: 0.8"/>
      </g>
     </g>
     <g id="text_3">
      <!-- 0.4 -->
      <g transform="translate(195.742983 322.182437) scale(0.1 -0.1)">
       <defs>
        <path id="DejaVuSans-34" d="M 2419 4116 
L 825 1625 
L 2419 1625 
L 2419 4116 
z
M 2253 4666 
L 3047 4666 
L 3047 1625 
L 3713 1625 
L 3713 1100 
L 3047 1100 
L 3047 0 
L 2419 0 
L 2419 1100 
L 313 1100 
L 313 1709 
L 2253 4666 
z
" transform="scale(0.015625)"/>
       </defs>
       <use xlink:href="#DejaVuSans-30"/>
       <use xlink:href="#DejaVuSans-2e" x="63.623047"/>
       <use xlink:href="#DejaVuSans-34" x="95.410156"/>
      </g>
     </g>
    </g>
    <g id="xtick_4">
     <g id="line2d_4">
      <g>
       <use xlink:href="#m0424d1dd08" x="268.625455" y="307.584" style="stroke: #000000; stroke-width: 0.8"/>
      </g>
     </g>
     <g id="text_4">
      <!-- 0.6 -->
      <g transform="translate(260.673892 322.182437) scale(0.1 -0.1)">
       <defs>
        <path id="DejaVuSans-36" d="M 2113 2584 
Q 1688 2584 1439 2293 
Q 1191 2003 1191 1497 
Q 1191 994 1439 701 
Q 1688 409 2113 409 
Q 2538 409 2786 701 
Q 3034 994 3034 1497 
Q 3034 2003 2786 2293 
Q 2538 2584 2113 2584 
z
M 3366 4563 
L 3366 3988 
Q 3128 4100 2886 4159 
Q 2644 4219 2406 4219 
Q 1781 4219 1451 3797 
Q 1122 3375 1075 2522 
Q 1259 2794 1537 2939 
Q 1816 3084 2150 3084 
Q 2853 3084 3261 2657 
Q 3669 2231 3669 1497 
Q 3669 778 3244 343 
Q 2819 -91 2113 -91 
Q 1303 -91 875 529 
Q 447 1150 447 2328 
Q 447 3434 972 4092 
Q 1497 4750 2381 4750 
Q 2619 4750 2861 4703 
Q 3103 4656 3366 4563 
z
" transform="scale(0.015625)"/>
       </defs>
       <use xlink:href="#DejaVuSans-30"/>
       <use xlink:href="#DejaVuSans-2e" x="63.623047"/>
       <use xlink:href="#DejaVuSans-36" x="95.410156"/>
      </g>
     </g>
    </g>
    <g id="xtick_5">
     <g id="line2d_5">
      <g>
       <use xlink:href="#m0424d1dd08" x="333.556364" y="307.584" style="stroke: #000000; stroke-width: 0.8"/>
      </g>
     </g>
     <g id="text_5">
      <!-- 0.8 -->
      <g transform="translate(325.604801 322.182437) scale(0.1 -0.1)">
       <defs>
        <path id="DejaVuSans-38" d="M 2034 2216 
Q 1584 2216 1326 1975 
Q 1069 1734 1069 1313 
Q 1069 891 1326 650 
Q 1584 409 2034 409 
Q 2484 409 2743 651 
Q 3003 894 3003 1313 
Q 3003 1734 2745 1975 
Q 2488 2216 2034 2216 
z
M 1403 2484 
Q 997 2584 770 2862 
Q 544 3141 544 3541 
Q 544 4100 942 4425 
Q 1341 4750 2034 4750 
Q 2731 4750 3128 4425 
Q 3525 4100 3525 3541 
Q 3525 3141 3298 2862 
Q 3072 2584 2669 2484 
Q 3125 2378 3379 2068 
Q 3634 1759 3634 1313 
Q 3634 634 3220 271 
Q 2806 -91 2034 -91 
Q 1263 -91 848 271 
Q 434 634 434 1313 
Q 434 1759 690 2068 
Q 947 2378 1403 2484 
z
M 1172 3481 
Q 1172 3119 1398 2916 
Q 1625 2713 2034 2713 
Q 2441 2713 2670 2916 
Q 2900 3119 2900 3481 
Q 2900 3844 2670 4047 
Q 2441 4250 2034 4250 
Q 1625 4250 1398 4047 
Q 1172 3844 1172 3481 
z
" transform="scale(0.015625)"/>
       </defs>
       <use xlink:href="#DejaVuSans-30"/>
       <use xlink:href="#DejaVuSans-2e" x="63.623047"/>
       <use xlink:href="#DejaVuSans-38" x="95.410156"/>
      </g>
     </g>
    </g>
    <g id="xtick_6">
     <g id="line2d_6">
      <g>
       <use xlink:href="#m0424d1dd08" x="398.487273" y="307.584" style="stroke: #000000; stroke-width: 0.8"/>
      </g>
     </g>
     <g id="text_6">
      <!-- 1.0 -->
      <g transform="translate(390.53571 322.182437) scale(0.1 -0.1)">
       <defs>
        <path id="DejaVuSans-31" d="M 794 531 
L 1825 531 
L 1825 4091 
L 703 3866 
L 703 4441 
L 1819 4666 
L 2450 4666 
L 2450 531 
L 3481 531 
L 3481 0 
L 794 0 
L 794 531 
z
" transform="scale(0.015625)"/>
       </defs>
       <use xlink:href="#DejaVuSans-31"/>
       <use xlink:href="#DejaVuSans-2e" x="63.623047"/>
       <use xlink:href="#DejaVuSans-30" x="95.410156"/>
      </g>
     </g>
    </g>
   </g>
   <g id="matplotlib.axis_2">
    <g id="ytick_1">
     <g id="line2d_7">
      <defs>
       <path id="m2a977a1c72" d="M 0 0 
L -3.5 0 
" style="stroke: #000000; stroke-width: 0.8"/>
      </defs>
      <g>
       <use xlink:href="#m2a977a1c72" x="57.6" y="304.603244" style="stroke: #000000; stroke-width: 0.8"/>
      </g>
     </g>
     <g id="text_7">
      <!-- −0.8 -->
      <g transform="translate(26.317187 308.402463) scale(0.1 -0.1)">
       <defs>
        <path id="DejaVuSans-2212" d="M 678 2272 
L 4684 2272 
L 4684 1741 
L 678 1741 
L 678 2272 
z
" transform="scale(0.015625)"/>
       </defs>
       <use xlink:href="#DejaVuSans-2212"/>
       <use xlink:href="#DejaVuSans-30" x="83.789062"/>
       <use xlink:href="#DejaVuSans-2e" x="147.412109"/>
       <use xlink:href="#DejaVuSans-38" x="179.199219"/>
      </g>
     </g>
    </g>
    <g id="ytick_2">
     <g id="line2d_8">
      <g>
       <use xlink:href="#m2a977a1c72" x="57.6" y="273.984087" style="stroke: #000000; stroke-width: 0.8"/>
      </g>
     </g>
     <g id="text_8">
      <!-- −0.6 -->
      <g transform="translate(26.317187 277.783306) scale(0.1 -0.1)">
       <use xlink:href="#DejaVuSans-2212"/>
       <use xlink:href="#DejaVuSans-30" x="83.789062"/>
       <use xlink:href="#DejaVuSans-2e" x="147.412109"/>
       <use xlink:href="#DejaVuSans-36" x="179.199219"/>
      </g>
     </g>
    </g>
    <g id="ytick_3">
     <g id="line2d_9">
      <g>
       <use xlink:href="#m2a977a1c72" x="57.6" y="243.36493" style="stroke: #000000; stroke-width: 0.8"/>
      </g>
     </g>
     <g id="text_9">
      <!-- −0.4 -->
      <g transform="translate(26.317187 247.164149) scale(0.1 -0.1)">
       <use xlink:href="#DejaVuSans-2212"/>
       <use xlink:href="#DejaVuSans-30" x="83.789062"/>
       <use xlink:href="#DejaVuSans-2e" x="147.412109"/>
       <use xlink:href="#DejaVuSans-34" x="179.199219"/>
      </g>
     </g>
    </g>
    <g id="ytick_4">
     <g id="line2d_10">
      <g>
       <use xlink:href="#m2a977a1c72" x="57.6" y="212.745773" style="stroke: #000000; stroke-width: 0.8"/>
      </g>
     </g>
     <g id="text_10">
      <!-- −0.2 -->
      <g transform="translate(26.317187 216.544992) scale(0.1 -0.1)">
       <use xlink:href="#DejaVuSans-2212"/>
       <use xlink:href="#DejaVuSans-30" x="83.789062"/>
       <use xlink:href="#DejaVuSans-2e" x="147.412109"/>
       <use xlink:href="#DejaVuSans-32" x="179.199219"/>
      </g>
     </g>
    </g>
    <g id="ytick_5">
     <g id="line2d_11">
      <g>
       <use xlink:href="#m2a977a1c72" x="57.6" y="182.126616" style="stroke: #000000; stroke-width: 0.8"/>
      </g>
     </g>
     <g id="text_11">
      <!-- 0.0 -->
      <g transform="translate(34.696875 185.925835) scale(0.1 -0.1)">
       <use xlink:href="#DejaVuSans-30"/>
       <use xlink:href="#DejaVuSans-2e" x="63.623047"/>
       <use xlink:href="#DejaVuSans-30" x="95.410156"/>
      </g>
     </g>
    </g>
    <g id="ytick_6">
     <g id="line2d_12">
      <g>
       <use xlink:href="#m2a977a1c72" x="57.6" y="151.507459" style="stroke: #000000; stroke-width: 0.8"/>
      </g>
     </g>
     <g id="text_12">
      <!-- 0.2 -->
      <g transform="translate(34.696875 155.306678) scale(0.1 -0.1)">
       <use xlink:href="#DejaVuSans-30"/>
       <use xlink:href="#DejaVuSans-2e" x="63.623047"/>
       <use xlink:href="#DejaVuSans-32" x="95.410156"/>
      </g>
     </g>
    </g>
    <g id="ytick_7">
     <g id="line2d_13">
      <g>
       <use xlink:href="#m2a977a1c72" x="57.6" y="120.888302" style="stroke: #000000; stroke-width: 0.8"/>
      </g>
     </g>
     <g id="text_13">
      <!-- 0.4 -->
      <g transform="translate(34.696875 124.687521) scale(0.1 -0.1)">
       <use xlink:href="#DejaVuSans-30"/>
       <use xlink:href="#DejaVuSans-2e" x="63.623047"/>
       <use xlink:href="#DejaVuSans-34" x="95.410156"/>
      </g>
     </g>
    </g>
    <g id="ytick_8">
     <g id="line2d_14">
      <g>
       <use xlink:href="#m2a977a1c72" x="57.6" y="90.269145" style="stroke: #000000; stroke-width: 0.8"/>
      </g>
     </g>
     <g id="text_14">
      <!-- 0.6 -->
      <g transform="translate(34.696875 94.068364) scale(0.1 -0.1)">
       <use xlink:href="#DejaVuSans-30"/>
       <use xlink:href="#DejaVuSans-2e" x="63.623047"/>
       <use xlink:href="#DejaVuSans-36" x="95.410156"/>
      </g>
     </g>
    </g>
    <g id="ytick_9">
     <g id="line2d_15">
      <g>
       <use xlink:href="#m2a977a1c72" x="57.6" y="59.649988" style="stroke: #000000; stroke-width: 0.8"/>
      </g>
     </g>
     <g id="text_15">
      <!-- 0.8 -->
      <g transform="translate(34.696875 63.449207) scale(0.1 -0.1)">
       <use xlink:href="#DejaVuSans-30"/>
       <use xlink:href="#DejaVuSans-2e" x="63.623047"/>
       <use xlink:href="#DejaVuSans-38" x="95.410156"/>
      </g>
     </g>
    </g>
   </g>
   <g id="line2d_16">
    <path d="M 73.832727 182.126616 
L 77.112066 174.407647 
L 80.391405 166.767369 
L 83.670744 159.283668 
L 86.950083 152.032836 
L 90.229421 145.088793 
L 93.508761 138.522328 
L 96.788098 132.400378 
L 100.067438 126.785356 
L 103.346778 121.734506 
L 106.626115 117.299311 
L 109.905455 113.524993 
L 113.184795 110.450022 
L 116.464132 108.105753 
L 119.743469 106.516075 
L 123.022811 105.697201 
L 126.302149 105.657479 
L 129.581486 106.397311 
L 132.860828 107.90915 
L 136.140166 110.177593 
L 139.419503 113.179512 
L 142.698845 116.884301 
L 145.978182 121.254195 
L 149.25752 126.244646 
L 152.536862 131.804779 
L 155.816194 137.877909 
L 159.095537 144.402127 
L 162.374879 151.310924 
L 165.654211 158.533864 
L 168.933553 165.997321 
L 172.212895 173.625204 
L 175.492228 181.339754 
L 178.77157 189.062326 
L 182.050912 196.714193 
L 185.330245 204.217348 
L 188.609587 211.495301 
L 191.888929 218.473861 
L 195.168262 225.081882 
L 198.447604 231.252 
L 201.726946 236.921321 
L 205.006278 242.032042 
L 208.285621 246.532062 
L 211.564963 250.375514 
L 214.844295 253.523208 
L 218.123637 255.943061 
L 221.40298 257.610399 
L 224.682312 258.508229 
L 227.961654 258.6274 
L 231.240996 257.966688 
L 234.520329 256.532838 
L 237.799661 254.340463 
L 241.079004 251.411915 
L 244.358346 247.777043 
L 247.637688 243.47291 
L 250.91703 238.543389 
L 254.196372 233.038736 
L 257.475695 227.015065 
L 260.755037 220.533786 
L 264.034379 213.660967 
L 267.313722 206.466678 
L 270.593064 199.024256 
L 273.872406 191.409573 
L 277.151729 183.700257 
L 280.431071 175.974898 
L 283.710413 168.312253 
L 286.989755 160.790435 
L 290.269097 153.486128 
L 293.54842 146.473791 
L 296.827762 139.824912 
L 300.107105 133.607275 
L 303.386447 127.884261 
L 306.665789 122.714212 
L 309.945131 118.149832 
L 313.224454 114.237659 
L 316.503796 111.017574 
L 319.783138 108.522396 
L 323.06248 106.777568 
L 326.341822 105.800873 
L 329.621165 105.602276 
L 332.900487 106.183794 
L 336.17983 107.539501 
L 339.459172 109.655575 
L 342.738514 112.510446 
L 346.017856 116.075012 
L 349.297198 120.312929 
L 352.576521 125.181001 
L 355.855863 130.629597 
L 359.135205 136.603171 
L 362.414548 143.040827 
L 365.69389 149.876939 
L 368.973232 157.041818 
L 372.252555 164.462418 
L 375.531897 172.063096 
L 378.811239 179.766363 
L 382.090581 187.493692 
L 385.369923 195.166307 
L 388.649266 202.70599 
L 391.928588 210.03588 
L 395.207931 217.081255 
L 398.487273 223.770287 
" clip-path="url(#p91daf9fc37)" style="fill: none; stroke-dasharray: 5.55,2.4; stroke-dashoffset: 0; stroke: #999999; stroke-width: 1.5"/>
   </g>
   <g id="line2d_17">
    <path d="M 73.832727 105.259213 
L 77.112066 105.262225 
L 80.391405 105.265866 
L 83.670744 105.270282 
L 86.950083 105.275721 
L 90.229421 105.282455 
L 93.508761 105.290869 
L 96.788098 105.301518 
L 100.067438 105.31516 
L 103.346778 105.332881 
L 106.626115 105.356233 
L 109.905455 105.387514 
L 113.184795 105.430183 
L 116.464132 105.489461 
L 119.743469 105.573468 
L 123.022811 105.694974 
L 126.302149 105.874436 
L 129.581486 106.144976 
L 132.860828 106.560857 
L 136.140166 107.211203 
L 139.419503 108.241381 
L 142.698845 109.882853 
L 145.978182 112.484051 
L 149.25752 116.51154 
L 152.536862 122.446159 
L 155.816194 130.480678 
L 159.095537 140.095201 
L 162.374879 149.972624 
L 165.654211 158.637093 
L 168.933553 165.263258 
L 172.212895 169.842016 
L 175.492228 172.807554 
L 178.77157 174.661766 
L 182.050912 175.804739 
L 185.330245 176.509156 
L 188.609587 176.947181 
L 191.888929 177.223585 
L 195.168262 177.401212 
L 198.447604 177.517695 
L 201.726946 177.595724 
L 205.006278 177.649123 
L 208.285621 177.686448 
L 211.564963 177.713072 
L 214.844295 177.732437 
L 218.123637 177.746779 
L 221.40298 177.757584 
L 224.682312 177.765849 
L 227.961654 177.772266 
L 231.240996 177.777313 
L 234.520329 177.781327 
L 237.799661 177.784554 
L 241.079004 177.787174 
L 244.358346 177.789319 
L 247.637688 177.791088 
L 250.91703 177.792559 
L 254.196372 177.793785 
L 257.475695 177.794815 
L 260.755037 177.795686 
L 264.034379 177.796422 
L 267.313722 177.797048 
L 270.593064 177.797581 
L 273.872406 177.798038 
L 277.151729 177.79843 
L 280.431071 177.798767 
L 283.710413 177.799057 
L 286.989755 177.799305 
L 290.269097 177.79952 
L 293.54842 177.799707 
L 296.827762 177.79987 
L 300.107105 177.800008 
L 303.386447 177.80013 
L 306.665789 177.800235 
L 309.945131 177.800326 
L 313.224454 177.800405 
L 316.503796 177.800474 
L 319.783138 177.800534 
L 323.06248 177.800587 
L 326.341822 177.800632 
L 329.621165 177.800673 
L 332.900487 177.800706 
L 336.17983 177.800735 
L 339.459172 177.800761 
L 342.738514 177.800785 
L 346.017856 177.800804 
L 349.297198 177.800821 
L 352.576521 177.800838 
L 355.855863 177.80085 
L 359.135205 177.800862 
L 362.414548 177.800871 
L 365.69389 177.800881 
L 368.973232 177.800888 
L 372.252555 177.800893 
L 375.531897 177.8009 
L 378.811239 177.800905 
L 382.090581 177.80091 
L 385.369923 177.800912 
L 388.649266 177.800917 
L 391.928588 177.800919 
L 395.207931 177.800922 
L 398.487273 177.800924 
" clip-path="url(#p91daf9fc37)" style="fill: none; stroke: #1f77b4; stroke-width: 2; stroke-linecap: square"/>
   </g>
   <g id="line2d_18">
    <path d="M 73.832727 143.545803 
L 77.112066 139.117739 
L 80.391405 134.553049 
L 83.670744 129.899356 
L 86.950083 125.213884 
L 90.229421 120.561883 
L 93.508761 116.014129 
L 96.788098 111.644171 
L 100.067438 107.524796 
L 103.346778 103.725501 
L 106.626115 100.30994 
L 109.905455 97.335018 
L 113.184795 94.850495 
L 116.464132 92.900189 
L 119.743469 91.523513 
L 123.022811 90.757742 
L 126.302149 90.640182 
L 129.581486 91.209678 
L 132.860828 92.507668 
L 136.140166 94.577404 
L 139.419503 97.461695 
L 142.698845 101.198427 
L 145.978182 105.814191 
L 149.25752 111.315918 
L 152.536862 117.682397 
L 155.816194 124.856599 
L 159.095537 132.741118 
L 162.374879 141.198851 
L 165.654211 150.059143 
L 168.933553 159.130113 
L 172.212895 168.213719 
L 175.492228 177.121187 
L 178.77157 185.687251 
L 182.050912 193.778114 
L 185.330245 201.295452 
L 188.609587 208.175832 
L 191.888929 214.386324 
L 195.168262 219.918411 
L 198.447604 224.781831 
L 201.726946 228.998472 
L 205.006278 232.596948 
L 208.285621 235.608768 
L 211.564963 238.065222 
L 214.844295 239.995152 
L 218.123637 241.423518 
L 221.40298 242.370501 
L 224.682312 242.85093 
L 227.961654 242.873994 
L 231.240996 242.443257 
L 234.520329 241.556627 
L 237.799661 240.206633 
L 241.079004 238.380759 
L 244.358346 236.062027 
L 247.637688 233.229823 
L 250.91703 229.861426 
L 254.196372 225.933233 
L 257.475695 221.423814 
L 260.755037 216.316429 
L 264.034379 210.603288 
L 267.313722 204.290208 
L 270.593064 197.401369 
L 273.872406 189.984522 
L 277.151729 182.114685 
L 280.431071 173.896051 
L 283.710413 165.461532 
L 286.989755 156.967411 
L 290.269097 148.585823 
L 293.54842 140.492837 
L 296.827762 132.856739 
L 300.107105 125.826501 
L 303.386447 119.523438 
L 306.665789 114.03731 
L 309.945131 109.426368 
L 313.224454 105.721497 
L 316.503796 102.931899 
L 319.783138 101.051958 
L 323.06248 100.067127 
L 326.341822 99.958072 
L 329.621165 100.703055 
L 332.900487 102.278095 
L 336.17983 104.655388 
L 339.459172 107.800528 
L 342.738514 111.668968 
L 346.017856 116.202811 
L 349.297198 121.328703 
L 352.576521 126.957458 
L 355.855863 132.986062 
L 359.135205 139.301508 
L 362.414548 145.786605 
L 365.69389 152.326059 
L 368.973232 158.812784 
L 372.252555 165.15273 
L 375.531897 171.268424 
L 378.811239 177.099848 
L 382.090581 182.604963 
L 385.369923 187.757698 
L 388.649266 192.546017 
L 391.928588 196.969148 
L 395.207931 201.035068 
L 398.487273 204.758044 
" clip-path="url(#p91daf9fc37)" style="fill: none; stroke: #ff7f0e; stroke-width: 2; stroke-linecap: square"/>
   </g>
   <g id="line2d_19">
    <path d="M 73.832727 141.362735 
L 77.112066 137.599216 
L 80.391405 133.584617 
L 83.670744 129.381559 
L 86.950083 125.073387 
L 90.229421 120.759563 
L 93.508761 116.547206 
L 96.788098 112.540851 
L 100.067438 108.831773 
L 103.346778 105.489543 
L 106.626115 102.5574 
L 109.905455 100.051368 
L 113.184795 97.963399 
L 116.464132 96.265853 
L 119.743469 94.917337 
L 123.022811 93.867398 
L 126.302149 93.060327 
L 129.581486 92.437203 
L 132.860828 91.936474 
L 136.140166 91.492861 
L 139.419503 91.035113 
L 142.698845 90.482708 
L 145.978182 89.742671 
L 149.25752 88.735922 
L 152.536862 88.769101 
L 155.816194 130.345269 
L 159.095537 178.336969 
L 162.374879 174.0575 
L 165.654211 165.624263 
L 168.933553 154.718667 
L 172.212895 142.736738 
L 175.492228 165.00562 
L 178.77157 214.495947 
L 182.050912 202.756069 
L 185.330245 188.12305 
L 188.609587 173.316431 
L 191.888929 173.895103 
L 195.168262 262.78803 
L 198.447604 258.177312 
L 201.726946 233.383382 
L 205.006278 223.757589 
L 208.285621 224.878436 
L 211.564963 229.541163 
L 214.844295 234.251966 
L 218.123637 237.921336 
L 221.40298 240.464713 
L 224.682312 242.089545 
L 227.961654 243.010038 
L 231.240996 243.358721 
L 234.520329 243.172394 
L 237.799661 242.401112 
L 241.079004 240.925349 
L 244.358346 238.582171 
L 247.637688 235.208367 
L 250.91703 230.707818 
L 254.196372 225.142168 
L 257.475695 218.817084 
L 260.755037 212.308527 
L 264.034379 206.366739 
L 267.313722 201.683573 
L 270.593064 198.57917 
L 273.872406 196.683068 
L 277.151729 194.658207 
L 280.431071 190.086656 
L 283.710413 179.969652 
L 286.989755 162.737192 
L 290.269097 141.338038 
L 293.54842 122.526255 
L 296.827762 110.873286 
L 300.107105 106.32466 
L 303.386447 106.72017 
L 306.665789 109.806329 
L 309.945131 113.722741 
L 313.224454 117.000187 
L 316.503796 118.564523 
L 319.783138 117.827835 
L 323.06248 114.817603 
L 326.341822 110.219208 
L 329.621165 105.19749 
L 332.900487 101.011423 
L 336.17983 98.639359 
L 339.459172 98.622094 
L 342.738514 101.110067 
L 346.017856 105.967102 
L 349.297198 112.840642 
L 352.576521 121.209427 
L 355.855863 130.448986 
L 359.135205 139.927032 
L 362.414548 149.100773 
L 365.69389 157.579747 
L 368.973232 165.139813 
L 372.252555 171.698585 
L 375.531897 177.27475 
L 378.811239 181.946607 
L 382.090581 185.820896 
L 385.369923 189.011122 
L 388.649266 191.625755 
L 391.928588 193.761982 
L 395.207931 195.503764 
L 398.487273 196.921697 
" clip-path="url(#p91daf9fc37)" style="fill: none; stroke: #2ca02c; stroke-width: 2; stroke-linecap: square"/>
   </g>
   <g id="patch_3">
    <path d="M 57.6 307.584 
L 57.6 41.472 
" style="fill: none; stroke: #000000; stroke-width: 0.8; stroke-linejoin: miter; stroke-linecap: square"/>
   </g>
   <g id="patch_4">
    <path d="M 414.72 307.584 
L 414.72 41.472 
" style="fill: none; stroke: #000000; stroke-width: 0.8; stroke-linejoin: miter; stroke-linecap: square"/>
   </g>
   <g id="patch_5">
    <path d="M 57.6 307.584 
L 414.72 307.584 
" style="fill: none; stroke: #000000; stroke-width: 0.8; stroke-linejoin: miter; stroke-linecap: square"/>
   </g>
   <g id="patch_6">
    <path d="M 57.6 41.472 
L 414.72 41.472 
" style="fill: none; stroke: #000000; stroke-width: 0.8; stroke-linejoin: miter; stroke-linecap: square"/>
   </g>
   <g id="legend_1">
    <g id="patch_7">
     <path d="M 64.6 302.584 
L 171.417188 302.584 
Q 173.417188 302.584 173.417188 300.584 
L 173.417188 242.8715 
Q 173.417188 240.8715 171.417188 240.8715 
L 64.6 240.8715 
Q 62.6 240.8715 62.6 242.8715 
L 62.6 300.584 
Q 62.6 302.584 64.6 302.584 
z
" style="fill: #ffffff; opacity: 0.8; stroke: #cccccc; stroke-linejoin: miter"/>
    </g>
    <g id="line2d_20">
     <path d="M 66.6 248.969937 
L 76.6 248.969937 
L 86.6 248.969937 
" style="fill: none; stroke-dasharray: 5.55,2.4; stroke-dashoffset: 0; stroke: #999999; stroke-width: 1.5"/>
    </g>
    <g id="text_16">
     <!-- actual function -->
     <g transform="translate(94.6 252.469937) scale(0.1 -0.1)">
      <defs>
       <path id="DejaVuSans-61" d="M 2194 1759 
Q 1497 1759 1228 1600 
Q 959 1441 959 1056 
Q 959 750 1161 570 
Q 1363 391 1709 391 
Q 2188 391 2477 730 
Q 2766 1069 2766 1631 
L 2766 1759 
L 2194 1759 
z
M 3341 1997 
L 3341 0 
L 2766 0 
L 2766 531 
Q 2569 213 2275 61 
Q 1981 -91 1556 -91 
Q 1019 -91 701 211 
Q 384 513 384 1019 
Q 384 1609 779 1909 
Q 1175 2209 1959 2209 
L 2766 2209 
L 2766 2266 
Q 2766 2663 2505 2880 
Q 2244 3097 1772 3097 
Q 1472 3097 1187 3025 
Q 903 2953 641 2809 
L 641 3341 
Q 956 3463 1253 3523 
Q 1550 3584 1831 3584 
Q 2591 3584 2966 3190 
Q 3341 2797 3341 1997 
z
" transform="scale(0.015625)"/>
       <path id="DejaVuSans-63" d="M 3122 3366 
L 3122 2828 
Q 2878 2963 2633 3030 
Q 2388 3097 2138 3097 
Q 1578 3097 1268 2742 
Q 959 2388 959 1747 
Q 959 1106 1268 751 
Q 1578 397 2138 397 
Q 2388 397 2633 464 
Q 2878 531 3122 666 
L 3122 134 
Q 2881 22 2623 -34 
Q 2366 -91 2075 -91 
Q 1284 -91 818 406 
Q 353 903 353 1747 
Q 353 2603 823 3093 
Q 1294 3584 2113 3584 
Q 2378 3584 2631 3529 
Q 2884 3475 3122 3366 
z
" transform="scale(0.015625)"/>
       <path id="DejaVuSans-74" d="M 1172 4494 
L 1172 3500 
L 2356 3500 
L 2356 3053 
L 1172 3053 
L 1172 1153 
Q 1172 725 1289 603 
Q 1406 481 1766 481 
L 2356 481 
L 2356 0 
L 1766 0 
Q 1100 0 847 248 
Q 594 497 594 1153 
L 594 3053 
L 172 3053 
L 172 3500 
L 594 3500 
L 594 4494 
L 1172 4494 
z
" transform="scale(0.015625)"/>
       <path id="DejaVuSans-75" d="M 544 1381 
L 544 3500 
L 1119 3500 
L 1119 1403 
Q 1119 906 1312 657 
Q 1506 409 1894 409 
Q 2359 409 2629 706 
Q 2900 1003 2900 1516 
L 2900 3500 
L 3475 3500 
L 3475 0 
L 2900 0 
L 2900 538 
Q 2691 219 2414 64 
Q 2138 -91 1772 -91 
Q 1169 -91 856 284 
Q 544 659 544 1381 
z
M 1991 3584 
L 1991 3584 
z
" transform="scale(0.015625)"/>
       <path id="DejaVuSans-6c" d="M 603 4863 
L 1178 4863 
L 1178 0 
L 603 0 
L 603 4863 
z
" transform="scale(0.015625)"/>
       <path id="DejaVuSans-20" transform="scale(0.015625)"/>
       <path id="DejaVuSans-66" d="M 2375 4863 
L 2375 4384 
L 1825 4384 
Q 1516 4384 1395 4259 
Q 1275 4134 1275 3809 
L 1275 3500 
L 2222 3500 
L 2222 3053 
L 1275 3053 
L 1275 0 
L 697 0 
L 697 3053 
L 147 3053 
L 147 3500 
L 697 3500 
L 697 3744 
Q 697 4328 969 4595 
Q 1241 4863 1831 4863 
L 2375 4863 
z
" transform="scale(0.015625)"/>
       <path id="DejaVuSans-6e" d="M 3513 2113 
L 3513 0 
L 2938 0 
L 2938 2094 
Q 2938 2591 2744 2837 
Q 2550 3084 2163 3084 
Q 1697 3084 1428 2787 
Q 1159 2491 1159 1978 
L 1159 0 
L 581 0 
L 581 3500 
L 1159 3500 
L 1159 2956 
Q 1366 3272 1645 3428 
Q 1925 3584 2291 3584 
Q 2894 3584 3203 3211 
Q 3513 2838 3513 2113 
z
" transform="scale(0.015625)"/>
       <path id="DejaVuSans-69" d="M 603 3500 
L 1178 3500 
L 1178 0 
L 603 0 
L 603 3500 
z
M 603 4863 
L 1178 4863 
L 1178 4134 
L 603 4134 
L 603 4863 
z
" transform="scale(0.015625)"/>
       <path id="DejaVuSans-6f" d="M 1959 3097 
Q 1497 3097 1228 2736 
Q 959 2375 959 1747 
Q 959 1119 1226 758 
Q 1494 397 1959 397 
Q 2419 397 2687 759 
Q 2956 1122 2956 1747 
Q 2956 2369 2687 2733 
Q 2419 3097 1959 3097 
z
M 1959 3584 
Q 2709 3584 3137 3096 
Q 3566 2609 3566 1747 
Q 3566 888 3137 398 
Q 2709 -91 1959 -91 
Q 1206 -91 779 398 
Q 353 888 353 1747 
Q 353 2609 779 3096 
Q 1206 3584 1959 3584 
z
" transform="scale(0.015625)"/>
      </defs>
      <use xlink:href="#DejaVuSans-61"/>
      <use xlink:href="#DejaVuSans-63" x="61.279297"/>
      <use xlink:href="#DejaVuSans-74" x="116.259766"/>
      <use xlink:href="#DejaVuSans-75" x="155.46875"/>
      <use xlink:href="#DejaVuSans-61" x="218.847656"/>
      <use xlink:href="#DejaVuSans-6c" x="280.126953"/>
      <use xlink:href="#DejaVuSans-20" x="307.910156"/>
      <use xlink:href="#DejaVuSans-66" x="339.697266"/>
      <use xlink:href="#DejaVuSans-75" x="374.902344"/>
      <use xlink:href="#DejaVuSans-6e" x="438.28125"/>
      <use xlink:href="#DejaVuSans-63" x="501.660156"/>
      <use xlink:href="#DejaVuSans-74" x="556.640625"/>
      <use xlink:href="#DejaVuSans-69" x="595.849609"/>
      <use xlink:href="#DejaVuSans-6f" x="623.632812"/>
      <use xlink:href="#DejaVuSans-6e" x="684.814453"/>
     </g>
    </g>
    <g id="line2d_21">
     <path d="M 66.6 263.648062 
L 76.6 263.648062 
L 86.6 263.648062 
" style="fill: none; stroke: #1f77b4; stroke-width: 2; stroke-linecap: square"/>
    </g>
    <g id="text_17">
     <!-- N = 1 -->
     <g transform="translate(94.6 267.148062) scale(0.1 -0.1)">
      <defs>
       <path id="DejaVuSans-4e" d="M 628 4666 
L 1478 4666 
L 3547 763 
L 3547 4666 
L 4159 4666 
L 4159 0 
L 3309 0 
L 1241 3903 
L 1241 0 
L 628 0 
L 628 4666 
z
" transform="scale(0.015625)"/>
       <path id="DejaVuSans-3d" d="M 678 2906 
L 4684 2906 
L 4684 2381 
L 678 2381 
L 678 2906 
z
M 678 1631 
L 4684 1631 
L 4684 1100 
L 678 1100 
L 678 1631 
z
" transform="scale(0.015625)"/>
      </defs>
      <use xlink:href="#DejaVuSans-4e"/>
      <use xlink:href="#DejaVuSans-20" x="74.804688"/>
      <use xlink:href="#DejaVuSans-3d" x="106.591797"/>
      <use xlink:href="#DejaVuSans-20" x="190.380859"/>
      <use xlink:href="#DejaVuSans-31" x="222.167969"/>
     </g>
    </g>
    <g id="line2d_22">
     <path d="M 66.6 278.326187 
L 76.6 278.326187 
L 86.6 278.326187 
" style="fill: none; stroke: #ff7f0e; stroke-width: 2; stroke-linecap: square"/>
    </g>
    <g id="text_18">
     <!-- N = 3 -->
     <g transform="translate(94.6 281.826187) scale(0.1 -0.1)">
      <defs>
       <path id="DejaVuSans-33" d="M 2597 2516 
Q 3050 2419 3304 2112 
Q 3559 1806 3559 1356 
Q 3559 666 3084 287 
Q 2609 -91 1734 -91 
Q 1441 -91 1130 -33 
Q 819 25 488 141 
L 488 750 
Q 750 597 1062 519 
Q 1375 441 1716 441 
Q 2309 441 2620 675 
Q 2931 909 2931 1356 
Q 2931 1769 2642 2001 
Q 2353 2234 1838 2234 
L 1294 2234 
L 1294 2753 
L 1863 2753 
Q 2328 2753 2575 2939 
Q 2822 3125 2822 3475 
Q 2822 3834 2567 4026 
Q 2313 4219 1838 4219 
Q 1578 4219 1281 4162 
Q 984 4106 628 3988 
L 628 4550 
Q 988 4650 1302 4700 
Q 1616 4750 1894 4750 
Q 2613 4750 3031 4423 
Q 3450 4097 3450 3541 
Q 3450 3153 3228 2886 
Q 3006 2619 2597 2516 
z
" transform="scale(0.015625)"/>
      </defs>
      <use xlink:href="#DejaVuSans-4e"/>
      <use xlink:href="#DejaVuSans-20" x="74.804688"/>
      <use xlink:href="#DejaVuSans-3d" x="106.591797"/>
      <use xlink:href="#DejaVuSans-20" x="190.380859"/>
      <use xlink:href="#DejaVuSans-33" x="222.167969"/>
     </g>
    </g>
    <g id="line2d_23">
     <path d="M 66.6 293.004312 
L 76.6 293.004312 
L 86.6 293.004312 
" style="fill: none; stroke: #2ca02c; stroke-width: 2; stroke-linecap: square"/>
    </g>
    <g id="text_19">
     <!-- N = 50 -->
     <g transform="translate(94.6 296.504312) scale(0.1 -0.1)">
      <defs>
       <path id="DejaVuSans-35" d="M 691 4666 
L 3169 4666 
L 3169 4134 
L 1269 4134 
L 1269 2991 
Q 1406 3038 1543 3061 
Q 1681 3084 1819 3084 
Q 2600 3084 3056 2656 
Q 3513 2228 3513 1497 
Q 3513 744 3044 326 
Q 2575 -91 1722 -91 
Q 1428 -91 1123 -41 
Q 819 9 494 109 
L 494 744 
Q 775 591 1075 516 
Q 1375 441 1709 441 
Q 2250 441 2565 725 
Q 2881 1009 2881 1497 
Q 2881 1984 2565 2268 
Q 2250 2553 1709 2553 
Q 1456 2553 1204 2497 
Q 953 2441 691 2322 
L 691 4666 
z
" transform="scale(0.015625)"/>
      </defs>
      <use xlink:href="#DejaVuSans-4e"/>
      <use xlink:href="#DejaVuSans-20" x="74.804688"/>
      <use xlink:href="#DejaVuSans-3d" x="106.591797"/>
      <use xlink:href="#DejaVuSans-20" x="190.380859"/>
      <use xlink:href="#DejaVuSans-35" x="222.167969"/>
      <use xlink:href="#DejaVuSans-30" x="285.791016"/>
     </g>
    </g>
   </g>
  </g>
 </g>
 <defs>
  <clipPath id="p91daf9fc37">
   <rect x="57.6" y="41.472" width="357.12" height="266.112"/>
  </clipPath>
 </defs>
</svg>
